solid FlipSky-85165-150
facet normal 0.195090 -0.000000 0.980785
outer loop
vertex 0.000000 0.082500 0.042500
vertex 0.000000 -0.082500 0.042500
vertex 0.016264 -0.082500 0.039265
endloop
endfacet
facet normal 0.195090 -0.000000 0.980785
outer loop
vertex 0.000000 0.082500 0.042500
vertex 0.016264 -0.082500 0.039265
vertex 0.016264 0.082500 0.039265
endloop
endfacet
facet normal 0.555570 -0.000000 0.831469
outer loop
vertex 0.016264 0.082500 0.039265
vertex 0.016264 -0.082500 0.039265
vertex 0.030052 -0.082500 0.030052
endloop
endfacet
facet normal 0.555570 -0.000000 0.831470
outer loop
vertex 0.016264 0.082500 0.039265
vertex 0.030052 -0.082500 0.030052
vertex 0.030052 0.082500 0.030052
endloop
endfacet
facet normal 0.831469 -0.000000 0.555570
outer loop
vertex 0.030052 0.082500 0.030052
vertex 0.030052 -0.082500 0.030052
vertex 0.039265 -0.082500 0.016264
endloop
endfacet
facet normal 0.831470 -0.000000 0.555570
outer loop
vertex 0.030052 0.082500 0.030052
vertex 0.039265 -0.082500 0.016264
vertex 0.039265 0.082500 0.016264
endloop
endfacet
facet normal 0.980785 0.000000 0.195090
outer loop
vertex 0.039265 0.082500 0.016264
vertex 0.039265 -0.082500 0.016264
vertex 0.042500 -0.082500 -0.000000
endloop
endfacet
facet normal 0.980785 -0.000000 0.195090
outer loop
vertex 0.039265 0.082500 0.016264
vertex 0.042500 -0.082500 -0.000000
vertex 0.042500 0.082500 0.000000
endloop
endfacet
facet normal 0.980785 0.000000 -0.195090
outer loop
vertex 0.042500 0.082500 0.000000
vertex 0.042500 -0.082500 -0.000000
vertex 0.039265 -0.082500 -0.016264
endloop
endfacet
facet normal 0.980785 -0.000000 -0.195090
outer loop
vertex 0.042500 0.082500 0.000000
vertex 0.039265 -0.082500 -0.016264
vertex 0.039265 0.082500 -0.016264
endloop
endfacet
facet normal 0.831470 0.000000 -0.555570
outer loop
vertex 0.039265 0.082500 -0.016264
vertex 0.039265 -0.082500 -0.016264
vertex 0.030052 -0.082500 -0.030052
endloop
endfacet
facet normal 0.831469 0.000000 -0.555570
outer loop
vertex 0.039265 0.082500 -0.016264
vertex 0.030052 -0.082500 -0.030052
vertex 0.030052 0.082500 -0.030052
endloop
endfacet
facet normal 0.555570 0.000000 -0.831470
outer loop
vertex 0.030052 0.082500 -0.030052
vertex 0.030052 -0.082500 -0.030052
vertex 0.016264 -0.082500 -0.039265
endloop
endfacet
facet normal 0.555570 0.000000 -0.831469
outer loop
vertex 0.030052 0.082500 -0.030052
vertex 0.016264 -0.082500 -0.039265
vertex 0.016264 0.082500 -0.039265
endloop
endfacet
facet normal 0.195090 0.000000 -0.980785
outer loop
vertex 0.016264 0.082500 -0.039265
vertex 0.016264 -0.082500 -0.039265
vertex 0.000000 -0.082500 -0.042500
endloop
endfacet
facet normal 0.195090 0.000000 -0.980785
outer loop
vertex 0.016264 0.082500 -0.039265
vertex 0.000000 -0.082500 -0.042500
vertex 0.000000 0.082500 -0.042500
endloop
endfacet
facet normal -0.195090 0.000000 -0.980785
outer loop
vertex 0.000000 0.082500 -0.042500
vertex 0.000000 -0.082500 -0.042500
vertex -0.016264 -0.082500 -0.039265
endloop
endfacet
facet normal -0.195090 0.000000 -0.980785
outer loop
vertex 0.000000 0.082500 -0.042500
vertex -0.016264 -0.082500 -0.039265
vertex -0.016264 0.082500 -0.039265
endloop
endfacet
facet normal -0.555570 0.000000 -0.831469
outer loop
vertex -0.016264 0.082500 -0.039265
vertex -0.016264 -0.082500 -0.039265
vertex -0.030052 -0.082500 -0.030052
endloop
endfacet
facet normal -0.555570 0.000000 -0.831470
outer loop
vertex -0.016264 0.082500 -0.039265
vertex -0.030052 -0.082500 -0.030052
vertex -0.030052 0.082500 -0.030052
endloop
endfacet
facet normal -0.831469 0.000000 -0.555570
outer loop
vertex -0.030052 0.082500 -0.030052
vertex -0.030052 -0.082500 -0.030052
vertex -0.039265 -0.082500 -0.016264
endloop
endfacet
facet normal -0.831470 0.000000 -0.555570
outer loop
vertex -0.030052 0.082500 -0.030052
vertex -0.039265 -0.082500 -0.016264
vertex -0.039265 0.082500 -0.016264
endloop
endfacet
facet normal -0.980785 0.000000 -0.195090
outer loop
vertex -0.039265 0.082500 -0.016264
vertex -0.039265 -0.082500 -0.016264
vertex -0.042500 -0.082500 -0.000000
endloop
endfacet
facet normal -0.980785 0.000000 -0.195090
outer loop
vertex -0.039265 0.082500 -0.016264
vertex -0.042500 -0.082500 -0.000000
vertex -0.042500 0.082500 0.000000
endloop
endfacet
facet normal -0.980785 0.000000 0.195090
outer loop
vertex -0.042500 0.082500 0.000000
vertex -0.042500 -0.082500 -0.000000
vertex -0.039265 -0.082500 0.016264
endloop
endfacet
facet normal -0.980785 0.000000 0.195090
outer loop
vertex -0.042500 0.082500 0.000000
vertex -0.039265 -0.082500 0.016264
vertex -0.039265 0.082500 0.016264
endloop
endfacet
facet normal -0.831470 -0.000000 0.555570
outer loop
vertex -0.039265 0.082500 0.016264
vertex -0.039265 -0.082500 0.016264
vertex -0.030052 -0.082500 0.030052
endloop
endfacet
facet normal -0.831469 -0.000000 0.555570
outer loop
vertex -0.039265 0.082500 0.016264
vertex -0.030052 -0.082500 0.030052
vertex -0.030052 0.082500 0.030052
endloop
endfacet
facet normal 0.195090 0.000000 0.980785
outer loop
vertex 0.011513 -0.082500 0.027796
vertex 0.000000 -0.082500 0.030086
vertex -0.000000 -0.085059 0.030086
endloop
endfacet
facet normal 0.195090 0.000000 0.980785
outer loop
vertex 0.011513 -0.082500 0.027796
vertex -0.000000 -0.085059 0.030086
vertex 0.011513 -0.085059 0.027796
endloop
endfacet
facet normal -0.555570 -0.000000 0.831470
outer loop
vertex -0.030052 0.082500 0.030052
vertex -0.030052 -0.082500 0.030052
vertex -0.016264 -0.082500 0.039265
endloop
endfacet
facet normal -0.555570 -0.000000 0.831469
outer loop
vertex -0.030052 0.082500 0.030052
vertex -0.016264 -0.082500 0.039265
vertex -0.016264 0.082500 0.039265
endloop
endfacet
facet normal -0.195090 -0.000000 0.980785
outer loop
vertex -0.016264 0.082500 0.039265
vertex -0.016264 -0.082500 0.039265
vertex 0.000000 -0.082500 0.042500
endloop
endfacet
facet normal -0.195090 -0.000000 0.980785
outer loop
vertex -0.016264 0.082500 0.039265
vertex 0.000000 -0.082500 0.042500
vertex 0.000000 0.082500 0.042500
endloop
endfacet
facet normal 0.000000 1.000000 0.000000
outer loop
vertex -0.016264 0.082500 0.039265
vertex 0.000000 0.082500 0.042500
vertex 0.016264 0.082500 0.039265
endloop
endfacet
facet normal 0.000000 1.000000 0.000000
outer loop
vertex 0.016264 0.082500 0.039265
vertex 0.030052 0.082500 0.030052
vertex 0.039265 0.082500 0.016264
endloop
endfacet
facet normal 0.000000 1.000000 0.000000
outer loop
vertex 0.039265 0.082500 0.016264
vertex 0.042500 0.082500 0.000000
vertex 0.039265 0.082500 -0.016264
endloop
endfacet
facet normal 0.000000 1.000000 0.000000
outer loop
vertex 0.039265 0.082500 -0.016264
vertex 0.030052 0.082500 -0.030052
vertex 0.016264 0.082500 -0.039265
endloop
endfacet
facet normal 0.000000 1.000000 0.000000
outer loop
vertex 0.016264 0.082500 -0.039265
vertex 0.000000 0.082500 -0.042500
vertex -0.016264 0.082500 -0.039265
endloop
endfacet
facet normal 0.000000 1.000000 0.000000
outer loop
vertex -0.016264 0.082500 -0.039265
vertex -0.030052 0.082500 -0.030052
vertex -0.039265 0.082500 -0.016264
endloop
endfacet
facet normal 0.000000 1.000000 0.000000
outer loop
vertex -0.039265 0.082500 -0.016264
vertex -0.042500 0.082500 0.000000
vertex -0.039265 0.082500 0.016264
endloop
endfacet
facet normal 0.000000 1.000000 0.000000
outer loop
vertex -0.039265 0.082500 0.016264
vertex -0.030052 0.082500 0.030052
vertex -0.016264 0.082500 0.039265
endloop
endfacet
facet normal 0.000000 1.000000 0.000000
outer loop
vertex -0.016264 0.082500 0.039265
vertex 0.016264 0.082500 0.039265
vertex 0.039265 0.082500 0.016264
endloop
endfacet
facet normal 0.000000 1.000000 0.000000
outer loop
vertex 0.039265 0.082500 0.016264
vertex 0.039265 0.082500 -0.016264
vertex 0.016264 0.082500 -0.039265
endloop
endfacet
facet normal 0.000000 1.000000 0.000000
outer loop
vertex 0.016264 0.082500 -0.039265
vertex -0.016264 0.082500 -0.039265
vertex -0.039265 0.082500 -0.016264
endloop
endfacet
facet normal 0.000000 1.000000 0.000000
outer loop
vertex -0.039265 0.082500 -0.016264
vertex -0.039265 0.082500 0.016264
vertex -0.016264 0.082500 0.039265
endloop
endfacet
facet normal 0.000000 1.000000 0.000000
outer loop
vertex -0.016264 0.082500 0.039265
vertex 0.039265 0.082500 0.016264
vertex 0.016264 0.082500 -0.039265
endloop
endfacet
facet normal 0.000000 1.000000 0.000000
outer loop
vertex 0.016264 0.082500 -0.039265
vertex -0.039265 0.082500 -0.016264
vertex -0.016264 0.082500 0.039265
endloop
endfacet
facet normal 0.000000 -1.000000 0.000001
outer loop
vertex 0.000000 -0.082500 0.030086
vertex 0.011513 -0.082500 0.027796
vertex 0.016264 -0.082500 0.039265
endloop
endfacet
facet normal 0.000000 -1.000000 0.000000
outer loop
vertex 0.000000 -0.082500 0.030086
vertex 0.016264 -0.082500 0.039265
vertex 0.000000 -0.082500 0.042500
endloop
endfacet
facet normal 0.000000 -1.000000 0.000000
outer loop
vertex 0.011513 -0.082500 0.027796
vertex 0.021274 -0.082500 0.021274
vertex 0.030052 -0.082500 0.030052
endloop
endfacet
facet normal 0.000000 -1.000000 0.000000
outer loop
vertex 0.011513 -0.082500 0.027796
vertex 0.030052 -0.082500 0.030052
vertex 0.016264 -0.082500 0.039265
endloop
endfacet
facet normal 0.000000 -1.000000 -0.000001
outer loop
vertex 0.021274 -0.082500 0.021274
vertex 0.027796 -0.082500 0.011513
vertex 0.039265 -0.082500 0.016264
endloop
endfacet
facet normal 0.000000 -1.000000 0.000001
outer loop
vertex 0.021274 -0.082500 0.021274
vertex 0.039265 -0.082500 0.016264
vertex 0.030052 -0.082500 0.030052
endloop
endfacet
facet normal 0.000000 -1.000000 -0.000002
outer loop
vertex 0.027796 -0.082500 0.011513
vertex 0.030086 -0.082500 -0.000000
vertex 0.042500 -0.082500 -0.000000
endloop
endfacet
facet normal 0.000000 -1.000000 0.000001
outer loop
vertex 0.027796 -0.082500 0.011513
vertex 0.042500 -0.082500 -0.000000
vertex 0.039265 -0.082500 0.016264
endloop
endfacet
facet normal 0.000000 -1.000000 -0.000001
outer loop
vertex 0.030086 -0.082500 -0.000000
vertex 0.027796 -0.082500 -0.011513
vertex 0.039265 -0.082500 -0.016264
endloop
endfacet
facet normal 0.000000 -1.000000 0.000000
outer loop
vertex 0.030086 -0.082500 -0.000000
vertex 0.039265 -0.082500 -0.016264
vertex 0.042500 -0.082500 -0.000000
endloop
endfacet
facet normal 0.000000 -1.000000 -0.000001
outer loop
vertex 0.027796 -0.082500 -0.011513
vertex 0.021274 -0.082500 -0.021274
vertex 0.030052 -0.082500 -0.030052
endloop
endfacet
facet normal 0.000000 -1.000000 0.000000
outer loop
vertex 0.027796 -0.082500 -0.011513
vertex 0.030052 -0.082500 -0.030052
vertex 0.039265 -0.082500 -0.016264
endloop
endfacet
facet normal 0.000000 -1.000000 -0.000000
outer loop
vertex 0.021274 -0.082500 -0.021274
vertex 0.011513 -0.082500 -0.027796
vertex 0.016264 -0.082500 -0.039265
endloop
endfacet
facet normal 0.000000 -1.000000 0.000000
outer loop
vertex 0.021274 -0.082500 -0.021274
vertex 0.016264 -0.082500 -0.039265
vertex 0.030052 -0.082500 -0.030052
endloop
endfacet
facet normal 0.000000 -1.000000 0.000000
outer loop
vertex 0.011513 -0.082500 -0.027796
vertex 0.000000 -0.082500 -0.030086
vertex 0.000000 -0.082500 -0.042500
endloop
endfacet
facet normal 0.000000 -1.000000 -0.000001
outer loop
vertex 0.011513 -0.082500 -0.027796
vertex 0.000000 -0.082500 -0.042500
vertex 0.016264 -0.082500 -0.039265
endloop
endfacet
facet normal 0.000000 -1.000000 -0.000001
outer loop
vertex 0.000000 -0.082500 -0.030086
vertex -0.011513 -0.082500 -0.027796
vertex -0.016264 -0.082500 -0.039265
endloop
endfacet
facet normal 0.000000 -1.000000 0.000000
outer loop
vertex 0.000000 -0.082500 -0.030086
vertex -0.016264 -0.082500 -0.039265
vertex 0.000000 -0.082500 -0.042500
endloop
endfacet
facet normal 0.000000 -1.000000 0.000000
outer loop
vertex -0.011513 -0.082500 -0.027796
vertex -0.021274 -0.082500 -0.021274
vertex -0.030052 -0.082500 -0.030052
endloop
endfacet
facet normal 0.000000 -1.000000 0.000000
outer loop
vertex -0.011513 -0.082500 -0.027796
vertex -0.030052 -0.082500 -0.030052
vertex -0.016264 -0.082500 -0.039265
endloop
endfacet
facet normal 0.000000 -1.000000 0.000001
outer loop
vertex -0.021274 -0.082500 -0.021274
vertex -0.027796 -0.082500 -0.011513
vertex -0.039265 -0.082500 -0.016264
endloop
endfacet
facet normal 0.000000 -1.000000 -0.000001
outer loop
vertex -0.021274 -0.082500 -0.021274
vertex -0.039265 -0.082500 -0.016264
vertex -0.030052 -0.082500 -0.030052
endloop
endfacet
facet normal 0.000000 -1.000000 0.000002
outer loop
vertex -0.027796 -0.082500 -0.011513
vertex -0.030086 -0.082500 -0.000000
vertex -0.042500 -0.082500 -0.000000
endloop
endfacet
facet normal 0.000000 -1.000000 -0.000001
outer loop
vertex -0.027796 -0.082500 -0.011513
vertex -0.042500 -0.082500 -0.000000
vertex -0.039265 -0.082500 -0.016264
endloop
endfacet
facet normal 0.000000 -1.000000 0.000001
outer loop
vertex -0.030086 -0.082500 -0.000000
vertex -0.027796 -0.082500 0.011513
vertex -0.039265 -0.082500 0.016264
endloop
endfacet
facet normal 0.000000 -1.000000 -0.000000
outer loop
vertex -0.030086 -0.082500 -0.000000
vertex -0.039265 -0.082500 0.016264
vertex -0.042500 -0.082500 -0.000000
endloop
endfacet
facet normal 0.000000 -1.000000 0.000001
outer loop
vertex -0.027796 -0.082500 0.011513
vertex -0.021274 -0.082500 0.021274
vertex -0.030052 -0.082500 0.030052
endloop
endfacet
facet normal 0.000000 -1.000000 0.000000
outer loop
vertex -0.027796 -0.082500 0.011513
vertex -0.030052 -0.082500 0.030052
vertex -0.039265 -0.082500 0.016264
endloop
endfacet
facet normal 0.000000 -1.000000 0.000000
outer loop
vertex -0.021274 -0.082500 0.021274
vertex -0.011513 -0.082500 0.027796
vertex -0.016264 -0.082500 0.039265
endloop
endfacet
facet normal 0.000000 -1.000000 0.000000
outer loop
vertex -0.021274 -0.082500 0.021274
vertex -0.016264 -0.082500 0.039265
vertex -0.030052 -0.082500 0.030052
endloop
endfacet
facet normal 0.000000 -1.000000 0.000000
outer loop
vertex -0.011513 -0.082500 0.027796
vertex 0.000000 -0.082500 0.030086
vertex 0.000000 -0.082500 0.042500
endloop
endfacet
facet normal 0.000000 -1.000000 0.000001
outer loop
vertex -0.011513 -0.082500 0.027796
vertex 0.000000 -0.082500 0.042500
vertex -0.016264 -0.082500 0.039265
endloop
endfacet
facet normal -0.803936 -0.255213 -0.537172
outer loop
vertex -0.017269 -0.085059 -0.007153
vertex -0.013217 -0.085059 -0.013217
vertex -0.010553 -0.099060 -0.010553
endloop
endfacet
facet normal -0.803936 -0.255213 -0.537172
outer loop
vertex -0.017269 -0.085059 -0.007153
vertex -0.010553 -0.099060 -0.010553
vertex -0.013788 -0.099060 -0.005711
endloop
endfacet
facet normal -0.195090 0.000000 0.980785
outer loop
vertex 0.000000 -0.082500 0.030086
vertex -0.011513 -0.082500 0.027796
vertex -0.011513 -0.085059 0.027796
endloop
endfacet
facet normal -0.195090 0.000000 0.980785
outer loop
vertex 0.000000 -0.082500 0.030086
vertex -0.011513 -0.085059 0.027796
vertex -0.000000 -0.085059 0.030086
endloop
endfacet
facet normal -0.195090 0.000000 -0.980785
outer loop
vertex -0.011513 -0.082500 -0.027796
vertex 0.000000 -0.082500 -0.030086
vertex -0.000000 -0.085059 -0.030086
endloop
endfacet
facet normal -0.195091 0.000000 -0.980785
outer loop
vertex -0.011513 -0.082500 -0.027796
vertex -0.000000 -0.085059 -0.030086
vertex -0.011513 -0.085059 -0.027796
endloop
endfacet
facet normal 0.555571 0.000000 0.831469
outer loop
vertex 0.021274 -0.082500 0.021274
vertex 0.011513 -0.082500 0.027796
vertex 0.011513 -0.085059 0.027796
endloop
endfacet
facet normal 0.555569 0.000000 0.831470
outer loop
vertex 0.021274 -0.082500 0.021274
vertex 0.011513 -0.085059 0.027796
vertex 0.021274 -0.085059 0.021274
endloop
endfacet
facet normal -0.555571 0.000000 -0.831469
outer loop
vertex -0.021274 -0.082500 -0.021274
vertex -0.011513 -0.082500 -0.027796
vertex -0.011513 -0.085059 -0.027796
endloop
endfacet
facet normal -0.555570 0.000000 -0.831470
outer loop
vertex -0.021274 -0.082500 -0.021274
vertex -0.011513 -0.085059 -0.027796
vertex -0.021274 -0.085059 -0.021274
endloop
endfacet
facet normal 0.831471 0.000000 0.555568
outer loop
vertex 0.027796 -0.082500 0.011513
vertex 0.021274 -0.082500 0.021274
vertex 0.021274 -0.085059 0.021274
endloop
endfacet
facet normal 0.831469 0.000000 0.555571
outer loop
vertex 0.027796 -0.082500 0.011513
vertex 0.021274 -0.085059 0.021274
vertex 0.027796 -0.085059 0.011513
endloop
endfacet
facet normal -0.831471 0.000000 -0.555568
outer loop
vertex -0.027796 -0.082500 -0.011513
vertex -0.021274 -0.082500 -0.021274
vertex -0.021274 -0.085059 -0.021274
endloop
endfacet
facet normal -0.831469 0.000000 -0.555571
outer loop
vertex -0.027796 -0.082500 -0.011513
vertex -0.021274 -0.085059 -0.021274
vertex -0.027796 -0.085059 -0.011513
endloop
endfacet
facet normal 0.980785 0.000000 0.195091
outer loop
vertex 0.030086 -0.082500 -0.000000
vertex 0.027796 -0.082500 0.011513
vertex 0.027796 -0.085059 0.011513
endloop
endfacet
facet normal 0.980785 0.000000 0.195090
outer loop
vertex 0.030086 -0.082500 -0.000000
vertex 0.027796 -0.085059 0.011513
vertex 0.030086 -0.085059 -0.000000
endloop
endfacet
facet normal -0.980785 0.000000 -0.195091
outer loop
vertex -0.030086 -0.082500 -0.000000
vertex -0.027796 -0.082500 -0.011513
vertex -0.027796 -0.085059 -0.011513
endloop
endfacet
facet normal -0.980785 0.000000 -0.195090
outer loop
vertex -0.030086 -0.082500 -0.000000
vertex -0.027796 -0.085059 -0.011513
vertex -0.030086 -0.085059 -0.000000
endloop
endfacet
facet normal 0.980785 0.000000 -0.195091
outer loop
vertex 0.027796 -0.082500 -0.011513
vertex 0.030086 -0.082500 -0.000000
vertex 0.030086 -0.085059 -0.000000
endloop
endfacet
facet normal 0.980785 0.000000 -0.195090
outer loop
vertex 0.027796 -0.082500 -0.011513
vertex 0.030086 -0.085059 -0.000000
vertex 0.027796 -0.085059 -0.011513
endloop
endfacet
facet normal -0.980785 -0.000000 0.195091
outer loop
vertex -0.027796 -0.082500 0.011513
vertex -0.030086 -0.082500 -0.000000
vertex -0.030086 -0.085059 -0.000000
endloop
endfacet
facet normal -0.980785 0.000000 0.195090
outer loop
vertex -0.027796 -0.082500 0.011513
vertex -0.030086 -0.085059 -0.000000
vertex -0.027796 -0.085059 0.011513
endloop
endfacet
facet normal 0.831471 0.000000 -0.555568
outer loop
vertex 0.021274 -0.082500 -0.021274
vertex 0.027796 -0.082500 -0.011513
vertex 0.027796 -0.085059 -0.011513
endloop
endfacet
facet normal 0.831469 0.000000 -0.555571
outer loop
vertex 0.021274 -0.082500 -0.021274
vertex 0.027796 -0.085059 -0.011513
vertex 0.021274 -0.085059 -0.021274
endloop
endfacet
facet normal -0.831471 0.000000 0.555568
outer loop
vertex -0.021274 -0.082500 0.021274
vertex -0.027796 -0.082500 0.011513
vertex -0.027796 -0.085059 0.011513
endloop
endfacet
facet normal -0.831469 0.000000 0.555571
outer loop
vertex -0.021274 -0.082500 0.021274
vertex -0.027796 -0.085059 0.011513
vertex -0.021274 -0.085059 0.021274
endloop
endfacet
facet normal 0.555571 0.000000 -0.831469
outer loop
vertex 0.011513 -0.082500 -0.027796
vertex 0.021274 -0.082500 -0.021274
vertex 0.021274 -0.085059 -0.021274
endloop
endfacet
facet normal 0.555569 0.000000 -0.831470
outer loop
vertex 0.011513 -0.082500 -0.027796
vertex 0.021274 -0.085059 -0.021274
vertex 0.011513 -0.085059 -0.027796
endloop
endfacet
facet normal -0.555571 0.000000 0.831469
outer loop
vertex -0.011513 -0.082500 0.027796
vertex -0.021274 -0.082500 0.021274
vertex -0.021274 -0.085059 0.021274
endloop
endfacet
facet normal -0.555570 0.000000 0.831470
outer loop
vertex -0.011513 -0.082500 0.027796
vertex -0.021274 -0.085059 0.021274
vertex -0.011513 -0.085059 0.027796
endloop
endfacet
facet normal 0.195091 0.000000 -0.980785
outer loop
vertex 0.000000 -0.082500 -0.030086
vertex 0.011513 -0.082500 -0.027796
vertex 0.011513 -0.085059 -0.027796
endloop
endfacet
facet normal 0.195090 0.000000 -0.980785
outer loop
vertex 0.000000 -0.082500 -0.030086
vertex 0.011513 -0.085059 -0.027796
vertex -0.000000 -0.085059 -0.030086
endloop
endfacet
facet normal 0.000000 -1.000000 0.000000
outer loop
vertex -0.000000 -0.085059 0.018692
vertex 0.007153 -0.085059 0.017269
vertex 0.011513 -0.085059 0.027796
endloop
endfacet
facet normal 0.000000 -1.000000 0.000000
outer loop
vertex -0.000000 -0.085059 0.018692
vertex 0.011513 -0.085059 0.027796
vertex -0.000000 -0.085059 0.030086
endloop
endfacet
facet normal 0.000000 -1.000000 0.000001
outer loop
vertex 0.007153 -0.085059 0.017269
vertex 0.013217 -0.085059 0.013217
vertex 0.021274 -0.085059 0.021274
endloop
endfacet
facet normal 0.000000 -1.000000 -0.000001
outer loop
vertex 0.007153 -0.085059 0.017269
vertex 0.021274 -0.085059 0.021274
vertex 0.011513 -0.085059 0.027796
endloop
endfacet
facet normal 0.000000 -1.000000 0.000001
outer loop
vertex 0.013217 -0.085059 0.013217
vertex 0.017269 -0.085059 0.007153
vertex 0.027796 -0.085059 0.011513
endloop
endfacet
facet normal 0.000000 -1.000000 0.000000
outer loop
vertex 0.013217 -0.085059 0.013217
vertex 0.027796 -0.085059 0.011513
vertex 0.021274 -0.085059 0.021274
endloop
endfacet
facet normal 0.000000 -1.000000 0.000000
outer loop
vertex 0.017269 -0.085059 0.007153
vertex 0.018692 -0.085059 -0.000000
vertex 0.030086 -0.085059 -0.000000
endloop
endfacet
facet normal 0.000000 -1.000000 0.000000
outer loop
vertex 0.017269 -0.085059 0.007153
vertex 0.030086 -0.085059 -0.000000
vertex 0.027796 -0.085059 0.011513
endloop
endfacet
facet normal 0.000000 -1.000000 0.000000
outer loop
vertex 0.018692 -0.085059 -0.000000
vertex 0.017269 -0.085059 -0.007153
vertex 0.027796 -0.085059 -0.011513
endloop
endfacet
facet normal 0.000000 -1.000000 0.000000
outer loop
vertex 0.018692 -0.085059 -0.000000
vertex 0.027796 -0.085059 -0.011513
vertex 0.030086 -0.085059 -0.000000
endloop
endfacet
facet normal 0.000000 -1.000000 0.000000
outer loop
vertex 0.017269 -0.085059 -0.007153
vertex 0.013217 -0.085059 -0.013217
vertex 0.021274 -0.085059 -0.021274
endloop
endfacet
facet normal 0.000000 -1.000000 0.000000
outer loop
vertex 0.017269 -0.085059 -0.007153
vertex 0.021274 -0.085059 -0.021274
vertex 0.027796 -0.085059 -0.011513
endloop
endfacet
facet normal 0.000000 -1.000000 0.000001
outer loop
vertex 0.013217 -0.085059 -0.013217
vertex 0.007153 -0.085059 -0.017269
vertex 0.011513 -0.085059 -0.027796
endloop
endfacet
facet normal 0.000000 -1.000000 0.000000
outer loop
vertex 0.013217 -0.085059 -0.013217
vertex 0.011513 -0.085059 -0.027796
vertex 0.021274 -0.085059 -0.021274
endloop
endfacet
facet normal 0.000000 -1.000000 0.000000
outer loop
vertex 0.007153 -0.085059 -0.017269
vertex -0.000000 -0.085059 -0.018692
vertex -0.000000 -0.085059 -0.030086
endloop
endfacet
facet normal 0.000000 -1.000000 0.000000
outer loop
vertex 0.007153 -0.085059 -0.017269
vertex -0.000000 -0.085059 -0.030086
vertex 0.011513 -0.085059 -0.027796
endloop
endfacet
facet normal 0.000000 -1.000000 0.000000
outer loop
vertex -0.000000 -0.085059 -0.018692
vertex -0.007153 -0.085059 -0.017269
vertex -0.011513 -0.085059 -0.027796
endloop
endfacet
facet normal 0.000000 -1.000000 0.000000
outer loop
vertex -0.000000 -0.085059 -0.018692
vertex -0.011513 -0.085059 -0.027796
vertex -0.000000 -0.085059 -0.030086
endloop
endfacet
facet normal 0.000000 -1.000000 -0.000001
outer loop
vertex -0.007153 -0.085059 -0.017269
vertex -0.013217 -0.085059 -0.013217
vertex -0.021274 -0.085059 -0.021274
endloop
endfacet
facet normal 0.000000 -1.000000 0.000001
outer loop
vertex -0.007153 -0.085059 -0.017269
vertex -0.021274 -0.085059 -0.021274
vertex -0.011513 -0.085059 -0.027796
endloop
endfacet
facet normal 0.000000 -1.000000 -0.000001
outer loop
vertex -0.013217 -0.085059 -0.013217
vertex -0.017269 -0.085059 -0.007153
vertex -0.027796 -0.085059 -0.011513
endloop
endfacet
facet normal 0.000000 -1.000000 0.000000
outer loop
vertex -0.013217 -0.085059 -0.013217
vertex -0.027796 -0.085059 -0.011513
vertex -0.021274 -0.085059 -0.021274
endloop
endfacet
facet normal 0.000000 -1.000000 0.000000
outer loop
vertex -0.017269 -0.085059 -0.007153
vertex -0.018692 -0.085059 -0.000000
vertex -0.030086 -0.085059 -0.000000
endloop
endfacet
facet normal 0.000000 -1.000000 0.000000
outer loop
vertex -0.017269 -0.085059 -0.007153
vertex -0.030086 -0.085059 -0.000000
vertex -0.027796 -0.085059 -0.011513
endloop
endfacet
facet normal 0.000000 -1.000000 0.000000
outer loop
vertex -0.018692 -0.085059 -0.000000
vertex -0.017269 -0.085059 0.007153
vertex -0.027796 -0.085059 0.011513
endloop
endfacet
facet normal 0.000000 -1.000000 0.000000
outer loop
vertex -0.018692 -0.085059 -0.000000
vertex -0.027796 -0.085059 0.011513
vertex -0.030086 -0.085059 -0.000000
endloop
endfacet
facet normal 0.000000 -1.000000 0.000000
outer loop
vertex -0.017269 -0.085059 0.007153
vertex -0.013217 -0.085059 0.013217
vertex -0.021274 -0.085059 0.021274
endloop
endfacet
facet normal 0.000000 -1.000000 0.000000
outer loop
vertex -0.017269 -0.085059 0.007153
vertex -0.021274 -0.085059 0.021274
vertex -0.027796 -0.085059 0.011513
endloop
endfacet
facet normal 0.000000 -1.000000 -0.000001
outer loop
vertex -0.013217 -0.085059 0.013217
vertex -0.007153 -0.085059 0.017269
vertex -0.011513 -0.085059 0.027796
endloop
endfacet
facet normal 0.000000 -1.000000 0.000000
outer loop
vertex -0.013217 -0.085059 0.013217
vertex -0.011513 -0.085059 0.027796
vertex -0.021274 -0.085059 0.021274
endloop
endfacet
facet normal 0.000000 -1.000000 0.000000
outer loop
vertex -0.007153 -0.085059 0.017269
vertex -0.000000 -0.085059 0.018692
vertex -0.000000 -0.085059 0.030086
endloop
endfacet
facet normal 0.000000 -1.000000 0.000000
outer loop
vertex -0.007153 -0.085059 0.017269
vertex -0.000000 -0.085059 0.030086
vertex -0.011513 -0.085059 0.027796
endloop
endfacet
facet normal -0.831470 0.000000 0.555570
outer loop
vertex -0.004484 -0.099060 0.004484
vertex -0.005859 -0.099060 0.002427
vertex -0.005859 -0.123627 0.002427
endloop
endfacet
facet normal -0.831470 0.000000 0.555570
outer loop
vertex -0.004484 -0.099060 0.004484
vertex -0.005859 -0.123627 0.002427
vertex -0.004484 -0.123627 0.004484
endloop
endfacet
facet normal 0.948306 -0.255213 0.188631
outer loop
vertex 0.018692 -0.085059 -0.000000
vertex 0.017269 -0.085059 0.007153
vertex 0.013788 -0.099060 0.005711
endloop
endfacet
facet normal 0.948307 -0.255213 0.188630
outer loop
vertex 0.018692 -0.085059 -0.000000
vertex 0.013788 -0.099060 0.005711
vertex 0.014924 -0.099060 -0.000000
endloop
endfacet
facet normal -0.948306 -0.255213 -0.188631
outer loop
vertex -0.018692 -0.085059 -0.000000
vertex -0.017269 -0.085059 -0.007153
vertex -0.013788 -0.099060 -0.005711
endloop
endfacet
facet normal -0.948307 -0.255213 -0.188629
outer loop
vertex -0.018692 -0.085059 -0.000000
vertex -0.013788 -0.099060 -0.005711
vertex -0.014924 -0.099060 -0.000000
endloop
endfacet
facet normal 0.948307 -0.255212 -0.188630
outer loop
vertex 0.017269 -0.085059 -0.007153
vertex 0.018692 -0.085059 -0.000000
vertex 0.014924 -0.099060 -0.000000
endloop
endfacet
facet normal 0.948307 -0.255212 -0.188630
outer loop
vertex 0.017269 -0.085059 -0.007153
vertex 0.014924 -0.099060 -0.000000
vertex 0.013788 -0.099060 -0.005711
endloop
endfacet
facet normal -0.948307 -0.255212 0.188630
outer loop
vertex -0.017269 -0.085059 0.007153
vertex -0.018692 -0.085059 -0.000000
vertex -0.014924 -0.099060 -0.000000
endloop
endfacet
facet normal -0.948307 -0.255213 0.188630
outer loop
vertex -0.017269 -0.085059 0.007153
vertex -0.014924 -0.099060 -0.000000
vertex -0.013788 -0.099060 0.005711
endloop
endfacet
facet normal 0.803935 -0.255212 -0.537173
outer loop
vertex 0.013217 -0.085059 -0.013217
vertex 0.017269 -0.085059 -0.007153
vertex 0.013788 -0.099060 -0.005711
endloop
endfacet
facet normal 0.803935 -0.255213 -0.537173
outer loop
vertex 0.013217 -0.085059 -0.013217
vertex 0.013788 -0.099060 -0.005711
vertex 0.010553 -0.099060 -0.010553
endloop
endfacet
facet normal -0.803935 -0.255212 0.537173
outer loop
vertex -0.013217 -0.085059 0.013217
vertex -0.017269 -0.085059 0.007153
vertex -0.013788 -0.099060 0.005711
endloop
endfacet
facet normal -0.803935 -0.255212 0.537173
outer loop
vertex -0.013217 -0.085059 0.013217
vertex -0.013788 -0.099060 0.005711
vertex -0.010553 -0.099060 0.010553
endloop
endfacet
facet normal 0.537172 -0.255213 -0.803936
outer loop
vertex 0.007153 -0.085059 -0.017269
vertex 0.013217 -0.085059 -0.013217
vertex 0.010553 -0.099060 -0.010553
endloop
endfacet
facet normal 0.537173 -0.255212 -0.803935
outer loop
vertex 0.007153 -0.085059 -0.017269
vertex 0.010553 -0.099060 -0.010553
vertex 0.005711 -0.099060 -0.013788
endloop
endfacet
facet normal -0.537172 -0.255212 0.803936
outer loop
vertex -0.007153 -0.085059 0.017269
vertex -0.013217 -0.085059 0.013217
vertex -0.010553 -0.099060 0.010553
endloop
endfacet
facet normal -0.537173 -0.255213 0.803935
outer loop
vertex -0.007153 -0.085059 0.017269
vertex -0.010553 -0.099060 0.010553
vertex -0.005711 -0.099060 0.013788
endloop
endfacet
facet normal 0.188630 -0.255212 -0.948307
outer loop
vertex -0.000000 -0.085059 -0.018692
vertex 0.007153 -0.085059 -0.017269
vertex 0.005711 -0.099060 -0.013788
endloop
endfacet
facet normal 0.188629 -0.255213 -0.948307
outer loop
vertex -0.000000 -0.085059 -0.018692
vertex 0.005711 -0.099060 -0.013788
vertex -0.000000 -0.099060 -0.014924
endloop
endfacet
facet normal 0.188630 -0.255213 0.948307
outer loop
vertex 0.007153 -0.085059 0.017269
vertex -0.000000 -0.085059 0.018692
vertex -0.000000 -0.099060 0.014924
endloop
endfacet
facet normal 0.188630 -0.255213 0.948307
outer loop
vertex 0.007153 -0.085059 0.017269
vertex -0.000000 -0.099060 0.014924
vertex 0.005711 -0.099060 0.013788
endloop
endfacet
facet normal -0.188630 -0.255213 0.948307
outer loop
vertex -0.000000 -0.085059 0.018692
vertex -0.007153 -0.085059 0.017269
vertex -0.005711 -0.099060 0.013788
endloop
endfacet
facet normal -0.188630 -0.255213 0.948307
outer loop
vertex -0.000000 -0.085059 0.018692
vertex -0.005711 -0.099060 0.013788
vertex -0.000000 -0.099060 0.014924
endloop
endfacet
facet normal -0.188630 -0.255213 -0.948307
outer loop
vertex -0.007153 -0.085059 -0.017269
vertex -0.000000 -0.085059 -0.018692
vertex -0.000000 -0.099060 -0.014924
endloop
endfacet
facet normal -0.188630 -0.255213 -0.948307
outer loop
vertex -0.007153 -0.085059 -0.017269
vertex -0.000000 -0.099060 -0.014924
vertex -0.005711 -0.099060 -0.013788
endloop
endfacet
facet normal 0.537173 -0.255213 0.803935
outer loop
vertex 0.013217 -0.085059 0.013217
vertex 0.007153 -0.085059 0.017269
vertex 0.005711 -0.099060 0.013788
endloop
endfacet
facet normal 0.537173 -0.255213 0.803935
outer loop
vertex 0.013217 -0.085059 0.013217
vertex 0.005711 -0.099060 0.013788
vertex 0.010553 -0.099060 0.010553
endloop
endfacet
facet normal -0.537173 -0.255212 -0.803935
outer loop
vertex -0.013217 -0.085059 -0.013217
vertex -0.007153 -0.085059 -0.017269
vertex -0.005711 -0.099060 -0.013788
endloop
endfacet
facet normal -0.537173 -0.255213 -0.803935
outer loop
vertex -0.013217 -0.085059 -0.013217
vertex -0.005711 -0.099060 -0.013788
vertex -0.010553 -0.099060 -0.010553
endloop
endfacet
facet normal 0.803936 -0.255213 0.537172
outer loop
vertex 0.017269 -0.085059 0.007153
vertex 0.013217 -0.085059 0.013217
vertex 0.010553 -0.099060 0.010553
endloop
endfacet
facet normal 0.803935 -0.255213 0.537173
outer loop
vertex 0.017269 -0.085059 0.007153
vertex 0.010553 -0.099060 0.010553
vertex 0.013788 -0.099060 0.005711
endloop
endfacet
facet normal 0.000000 -1.000000 0.000003
outer loop
vertex 0.000000 -0.099060 0.006342
vertex 0.002427 -0.099060 0.005859
vertex 0.005711 -0.099060 0.013788
endloop
endfacet
facet normal 0.000000 -1.000000 -0.000002
outer loop
vertex 0.000000 -0.099060 0.006342
vertex 0.005711 -0.099060 0.013788
vertex -0.000000 -0.099060 0.014924
endloop
endfacet
facet normal 0.000000 -1.000000 0.000000
outer loop
vertex 0.002427 -0.099060 0.005859
vertex 0.004484 -0.099060 0.004484
vertex 0.010553 -0.099060 0.010553
endloop
endfacet
facet normal 0.000000 -1.000000 0.000000
outer loop
vertex 0.002427 -0.099060 0.005859
vertex 0.010553 -0.099060 0.010553
vertex 0.005711 -0.099060 0.013788
endloop
endfacet
facet normal 0.000000 -1.000000 0.000006
outer loop
vertex 0.004484 -0.099060 0.004484
vertex 0.005859 -0.099060 0.002427
vertex 0.013788 -0.099060 0.005711
endloop
endfacet
facet normal 0.000000 -1.000000 -0.000002
outer loop
vertex 0.004484 -0.099060 0.004484
vertex 0.013788 -0.099060 0.005711
vertex 0.010553 -0.099060 0.010553
endloop
endfacet
facet normal 0.000000 -1.000000 0.000006
outer loop
vertex 0.005859 -0.099060 0.002427
vertex 0.006342 -0.099060 -0.000000
vertex 0.014924 -0.099060 -0.000000
endloop
endfacet
facet normal 0.000000 -1.000000 -0.000000
outer loop
vertex 0.005859 -0.099060 0.002427
vertex 0.014924 -0.099060 -0.000000
vertex 0.013788 -0.099060 0.005711
endloop
endfacet
facet normal 0.000000 -1.000000 -0.000006
outer loop
vertex 0.006342 -0.099060 -0.000000
vertex 0.005859 -0.099060 -0.002427
vertex 0.013788 -0.099060 -0.005711
endloop
endfacet
facet normal 0.000000 -1.000000 0.000000
outer loop
vertex 0.006342 -0.099060 -0.000000
vertex 0.013788 -0.099060 -0.005711
vertex 0.014924 -0.099060 -0.000000
endloop
endfacet
facet normal 0.000000 -1.000000 0.000000
outer loop
vertex 0.005859 -0.099060 -0.002427
vertex 0.004484 -0.099060 -0.004484
vertex 0.010553 -0.099060 -0.010553
endloop
endfacet
facet normal 0.000000 -1.000000 0.000001
outer loop
vertex 0.005859 -0.099060 -0.002427
vertex 0.010553 -0.099060 -0.010553
vertex 0.013788 -0.099060 -0.005711
endloop
endfacet
facet normal 0.000000 -1.000000 0.000000
outer loop
vertex 0.004484 -0.099060 -0.004484
vertex 0.002427 -0.099060 -0.005859
vertex 0.005711 -0.099060 -0.013788
endloop
endfacet
facet normal 0.000000 -1.000000 0.000000
outer loop
vertex 0.004484 -0.099060 -0.004484
vertex 0.005711 -0.099060 -0.013788
vertex 0.010553 -0.099060 -0.010553
endloop
endfacet
facet normal 0.000000 -1.000000 0.000000
outer loop
vertex 0.002427 -0.099060 -0.005859
vertex -0.000000 -0.099060 -0.006342
vertex -0.000000 -0.099060 -0.014924
endloop
endfacet
facet normal 0.000000 -1.000000 0.000000
outer loop
vertex 0.002427 -0.099060 -0.005859
vertex -0.000000 -0.099060 -0.014924
vertex 0.005711 -0.099060 -0.013788
endloop
endfacet
facet normal 0.000000 -1.000000 0.000003
outer loop
vertex -0.000000 -0.099060 -0.006342
vertex -0.002427 -0.099060 -0.005859
vertex -0.005711 -0.099060 -0.013788
endloop
endfacet
facet normal 0.000000 -1.000000 -0.000002
outer loop
vertex -0.000000 -0.099060 -0.006342
vertex -0.005711 -0.099060 -0.013788
vertex -0.000000 -0.099060 -0.014924
endloop
endfacet
facet normal 0.000000 -1.000000 0.000000
outer loop
vertex -0.002427 -0.099060 -0.005859
vertex -0.004484 -0.099060 -0.004484
vertex -0.010553 -0.099060 -0.010553
endloop
endfacet
facet normal 0.000000 -1.000000 0.000000
outer loop
vertex -0.002427 -0.099060 -0.005859
vertex -0.010553 -0.099060 -0.010553
vertex -0.005711 -0.099060 -0.013788
endloop
endfacet
facet normal 0.000000 -1.000000 0.000000
outer loop
vertex -0.004484 -0.099060 -0.004484
vertex -0.005859 -0.099060 -0.002427
vertex -0.013788 -0.099060 -0.005711
endloop
endfacet
facet normal 0.000000 -1.000000 -0.000001
outer loop
vertex -0.004484 -0.099060 -0.004484
vertex -0.013788 -0.099060 -0.005711
vertex -0.010553 -0.099060 -0.010553
endloop
endfacet
facet normal 0.000000 -1.000000 0.000000
outer loop
vertex -0.005859 -0.099060 -0.002427
vertex -0.006342 -0.099060 -0.000000
vertex -0.014924 -0.099060 -0.000000
endloop
endfacet
facet normal 0.000000 -1.000000 0.000000
outer loop
vertex -0.005859 -0.099060 -0.002427
vertex -0.014924 -0.099060 -0.000000
vertex -0.013788 -0.099060 -0.005711
endloop
endfacet
facet normal 0.000000 -1.000000 0.000006
outer loop
vertex -0.006342 -0.099060 -0.000000
vertex -0.005859 -0.099060 0.002427
vertex -0.013788 -0.099060 0.005711
endloop
endfacet
facet normal 0.000000 -1.000000 0.000000
outer loop
vertex -0.006342 -0.099060 -0.000000
vertex -0.013788 -0.099060 0.005711
vertex -0.014924 -0.099060 -0.000000
endloop
endfacet
facet normal 0.000000 -1.000000 0.000000
outer loop
vertex -0.005859 -0.099060 0.002427
vertex -0.004484 -0.099060 0.004484
vertex -0.010553 -0.099060 0.010553
endloop
endfacet
facet normal 0.000000 -1.000000 -0.000001
outer loop
vertex -0.005859 -0.099060 0.002427
vertex -0.010553 -0.099060 0.010553
vertex -0.013788 -0.099060 0.005711
endloop
endfacet
facet normal 0.000000 -1.000000 -0.000003
outer loop
vertex -0.004484 -0.099060 0.004484
vertex -0.002427 -0.099060 0.005859
vertex -0.005711 -0.099060 0.013788
endloop
endfacet
facet normal 0.000000 -1.000000 -0.000001
outer loop
vertex -0.004484 -0.099060 0.004484
vertex -0.005711 -0.099060 0.013788
vertex -0.010553 -0.099060 0.010553
endloop
endfacet
facet normal 0.000000 -1.000000 0.000000
outer loop
vertex -0.002427 -0.099060 0.005859
vertex 0.000000 -0.099060 0.006342
vertex -0.000000 -0.099060 0.014924
endloop
endfacet
facet normal 0.000000 -1.000000 0.000000
outer loop
vertex -0.002427 -0.099060 0.005859
vertex -0.000000 -0.099060 0.014924
vertex -0.005711 -0.099060 0.013788
endloop
endfacet
facet normal -0.195090 -0.000000 -0.980785
outer loop
vertex -0.001938 -0.123627 -0.004678
vertex -0.000000 -0.123627 -0.005064
vertex -0.000000 -0.143281 -0.005064
endloop
endfacet
facet normal -0.195091 -0.000000 -0.980785
outer loop
vertex -0.001938 -0.123627 -0.004678
vertex -0.000000 -0.143281 -0.005064
vertex -0.001938 -0.143281 -0.004678
endloop
endfacet
facet normal 0.555571 -0.000000 -0.831469
outer loop
vertex 0.002427 -0.099060 -0.005859
vertex 0.004484 -0.099060 -0.004484
vertex 0.004484 -0.123627 -0.004484
endloop
endfacet
facet normal 0.555571 -0.000000 -0.831469
outer loop
vertex 0.002427 -0.099060 -0.005859
vertex 0.004484 -0.123627 -0.004484
vertex 0.002427 -0.123627 -0.005859
endloop
endfacet
facet normal -0.555570 0.000000 0.831470
outer loop
vertex -0.002427 -0.099060 0.005859
vertex -0.004484 -0.099060 0.004484
vertex -0.004484 -0.123627 0.004484
endloop
endfacet
facet normal -0.555571 0.000000 0.831469
outer loop
vertex -0.002427 -0.099060 0.005859
vertex -0.004484 -0.123627 0.004484
vertex -0.002427 -0.123627 0.005859
endloop
endfacet
facet normal 0.195092 -0.000000 -0.980785
outer loop
vertex -0.000000 -0.099060 -0.006342
vertex 0.002427 -0.099060 -0.005859
vertex 0.002427 -0.123627 -0.005859
endloop
endfacet
facet normal 0.195090 -0.000000 -0.980785
outer loop
vertex -0.000000 -0.099060 -0.006342
vertex 0.002427 -0.123627 -0.005859
vertex -0.000000 -0.123627 -0.006342
endloop
endfacet
facet normal 0.195091 -0.000000 0.980785
outer loop
vertex 0.002427 -0.099060 0.005859
vertex 0.000000 -0.099060 0.006342
vertex -0.000000 -0.123627 0.006342
endloop
endfacet
facet normal 0.195090 -0.000000 0.980785
outer loop
vertex 0.002427 -0.099060 0.005859
vertex -0.000000 -0.123627 0.006342
vertex 0.002427 -0.123627 0.005859
endloop
endfacet
facet normal -0.195090 0.000000 0.980785
outer loop
vertex 0.000000 -0.099060 0.006342
vertex -0.002427 -0.099060 0.005859
vertex -0.002427 -0.123627 0.005859
endloop
endfacet
facet normal -0.195091 0.000000 0.980785
outer loop
vertex 0.000000 -0.099060 0.006342
vertex -0.002427 -0.123627 0.005859
vertex -0.000000 -0.123627 0.006342
endloop
endfacet
facet normal -0.195090 0.000000 -0.980785
outer loop
vertex -0.002427 -0.099060 -0.005859
vertex -0.000000 -0.099060 -0.006342
vertex -0.000000 -0.123627 -0.006342
endloop
endfacet
facet normal -0.195091 0.000000 -0.980785
outer loop
vertex -0.002427 -0.099060 -0.005859
vertex -0.000000 -0.123627 -0.006342
vertex -0.002427 -0.123627 -0.005859
endloop
endfacet
facet normal 0.555571 -0.000000 0.831469
outer loop
vertex 0.004484 -0.099060 0.004484
vertex 0.002427 -0.099060 0.005859
vertex 0.002427 -0.123627 0.005859
endloop
endfacet
facet normal 0.555571 -0.000000 0.831469
outer loop
vertex 0.004484 -0.099060 0.004484
vertex 0.002427 -0.123627 0.005859
vertex 0.004484 -0.123627 0.004484
endloop
endfacet
facet normal -0.555570 0.000000 -0.831469
outer loop
vertex -0.004484 -0.099060 -0.004484
vertex -0.002427 -0.099060 -0.005859
vertex -0.002427 -0.123627 -0.005859
endloop
endfacet
facet normal -0.555571 0.000000 -0.831469
outer loop
vertex -0.004484 -0.099060 -0.004484
vertex -0.002427 -0.123627 -0.005859
vertex -0.004484 -0.123627 -0.004484
endloop
endfacet
facet normal 0.831469 -0.000000 0.555571
outer loop
vertex 0.005859 -0.099060 0.002427
vertex 0.004484 -0.099060 0.004484
vertex 0.004484 -0.123627 0.004484
endloop
endfacet
facet normal 0.831469 -0.000000 0.555571
outer loop
vertex 0.005859 -0.099060 0.002427
vertex 0.004484 -0.123627 0.004484
vertex 0.005859 -0.123627 0.002427
endloop
endfacet
facet normal -0.831469 0.000000 -0.555571
outer loop
vertex -0.005859 -0.099060 -0.002427
vertex -0.004484 -0.099060 -0.004484
vertex -0.004484 -0.123627 -0.004484
endloop
endfacet
facet normal -0.831470 0.000000 -0.555570
outer loop
vertex -0.005859 -0.099060 -0.002427
vertex -0.004484 -0.123627 -0.004484
vertex -0.005859 -0.123627 -0.002427
endloop
endfacet
facet normal 0.980785 -0.000000 0.195091
outer loop
vertex 0.006342 -0.099060 -0.000000
vertex 0.005859 -0.099060 0.002427
vertex 0.005859 -0.123627 0.002427
endloop
endfacet
facet normal 0.980785 -0.000000 0.195091
outer loop
vertex 0.006342 -0.099060 -0.000000
vertex 0.005859 -0.123627 0.002427
vertex 0.006342 -0.123627 -0.000000
endloop
endfacet
facet normal -0.980785 0.000000 -0.195091
outer loop
vertex -0.006342 -0.099060 -0.000000
vertex -0.005859 -0.099060 -0.002427
vertex -0.005859 -0.123627 -0.002427
endloop
endfacet
facet normal -0.980785 0.000000 -0.195091
outer loop
vertex -0.006342 -0.099060 -0.000000
vertex -0.005859 -0.123627 -0.002427
vertex -0.006342 -0.123627 -0.000000
endloop
endfacet
facet normal 0.980785 -0.000000 -0.195091
outer loop
vertex 0.005859 -0.099060 -0.002427
vertex 0.006342 -0.099060 -0.000000
vertex 0.006342 -0.123627 -0.000000
endloop
endfacet
facet normal 0.980785 -0.000000 -0.195091
outer loop
vertex 0.005859 -0.099060 -0.002427
vertex 0.006342 -0.123627 -0.000000
vertex 0.005859 -0.123627 -0.002427
endloop
endfacet
facet normal -0.980785 0.000000 0.195091
outer loop
vertex -0.005859 -0.099060 0.002427
vertex -0.006342 -0.099060 -0.000000
vertex -0.006342 -0.123627 -0.000000
endloop
endfacet
facet normal -0.980785 0.000000 0.195091
outer loop
vertex -0.005859 -0.099060 0.002427
vertex -0.006342 -0.123627 -0.000000
vertex -0.005859 -0.123627 0.002427
endloop
endfacet
facet normal 0.831469 -0.000000 -0.555571
outer loop
vertex 0.004484 -0.099060 -0.004484
vertex 0.005859 -0.099060 -0.002427
vertex 0.005859 -0.123627 -0.002427
endloop
endfacet
facet normal 0.831469 -0.000000 -0.555571
outer loop
vertex 0.004484 -0.099060 -0.004484
vertex 0.005859 -0.123627 -0.002427
vertex 0.004484 -0.123627 -0.004484
endloop
endfacet
facet normal 0.000000 -1.000000 0.000006
outer loop
vertex -0.000000 -0.123627 0.005064
vertex 0.001938 -0.123627 0.004678
vertex 0.002427 -0.123627 0.005859
endloop
endfacet
facet normal 0.000000 -1.000000 0.000000
outer loop
vertex -0.000000 -0.123627 0.005064
vertex 0.002427 -0.123627 0.005859
vertex -0.000000 -0.123627 0.006342
endloop
endfacet
facet normal 0.000000 -1.000000 -0.000012
outer loop
vertex 0.001938 -0.123627 0.004678
vertex 0.003581 -0.123627 0.003581
vertex 0.004484 -0.123627 0.004484
endloop
endfacet
facet normal 0.000000 -1.000000 0.000019
outer loop
vertex 0.001938 -0.123627 0.004678
vertex 0.004484 -0.123627 0.004484
vertex 0.002427 -0.123627 0.005859
endloop
endfacet
facet normal 0.000000 -1.000000 0.000012
outer loop
vertex 0.003581 -0.123627 0.003581
vertex 0.004678 -0.123627 0.001938
vertex 0.005859 -0.123627 0.002427
endloop
endfacet
facet normal 0.000000 -1.000000 -0.000009
outer loop
vertex 0.003581 -0.123627 0.003581
vertex 0.005859 -0.123627 0.002427
vertex 0.004484 -0.123627 0.004484
endloop
endfacet
facet normal 0.000000 -1.000000 0.000000
outer loop
vertex 0.004678 -0.123627 0.001938
vertex 0.005064 -0.123627 -0.000000
vertex 0.006342 -0.123627 -0.000000
endloop
endfacet
facet normal 0.000000 -1.000000 0.000005
outer loop
vertex 0.004678 -0.123627 0.001938
vertex 0.006342 -0.123627 -0.000000
vertex 0.005859 -0.123627 0.002427
endloop
endfacet
facet normal 0.000000 -1.000000 0.000000
outer loop
vertex 0.005064 -0.123627 -0.000000
vertex 0.004678 -0.123627 -0.001938
vertex 0.005859 -0.123627 -0.002427
endloop
endfacet
facet normal 0.000000 -1.000000 0.000000
outer loop
vertex 0.005064 -0.123627 -0.000000
vertex 0.005859 -0.123627 -0.002427
vertex 0.006342 -0.123627 -0.000000
endloop
endfacet
facet normal 0.000000 -1.000000 0.000000
outer loop
vertex 0.004678 -0.123627 -0.001938
vertex 0.003581 -0.123627 -0.003581
vertex 0.004484 -0.123627 -0.004484
endloop
endfacet
facet normal 0.000000 -1.000000 0.000000
outer loop
vertex 0.004678 -0.123627 -0.001938
vertex 0.004484 -0.123627 -0.004484
vertex 0.005859 -0.123627 -0.002427
endloop
endfacet
facet normal 0.000000 -1.000000 -0.000006
outer loop
vertex 0.003581 -0.123627 -0.003581
vertex 0.001938 -0.123627 -0.004678
vertex 0.002427 -0.123627 -0.005859
endloop
endfacet
facet normal 0.000000 -1.000000 0.000000
outer loop
vertex 0.003581 -0.123627 -0.003581
vertex 0.002427 -0.123627 -0.005859
vertex 0.004484 -0.123627 -0.004484
endloop
endfacet
facet normal 0.000000 -1.000000 -0.000002
outer loop
vertex 0.001938 -0.123627 -0.004678
vertex -0.000000 -0.123627 -0.005064
vertex -0.000000 -0.123627 -0.006342
endloop
endfacet
facet normal 0.000000 -1.000000 -0.000019
outer loop
vertex 0.001938 -0.123627 -0.004678
vertex -0.000000 -0.123627 -0.006342
vertex 0.002427 -0.123627 -0.005859
endloop
endfacet
facet normal 0.000000 -1.000000 -0.000006
outer loop
vertex -0.000000 -0.123627 -0.005064
vertex -0.001938 -0.123627 -0.004678
vertex -0.002427 -0.123627 -0.005859
endloop
endfacet
facet normal 0.000000 -1.000000 0.000019
outer loop
vertex -0.000000 -0.123627 -0.005064
vertex -0.002427 -0.123627 -0.005859
vertex -0.000000 -0.123627 -0.006342
endloop
endfacet
facet normal 0.000000 -1.000000 -0.000012
outer loop
vertex -0.001938 -0.123627 -0.004678
vertex -0.003581 -0.123627 -0.003581
vertex -0.004484 -0.123627 -0.004484
endloop
endfacet
facet normal 0.000000 -1.000000 0.000000
outer loop
vertex -0.001938 -0.123627 -0.004678
vertex -0.004484 -0.123627 -0.004484
vertex -0.002427 -0.123627 -0.005859
endloop
endfacet
facet normal 0.000000 -1.000000 0.000012
outer loop
vertex -0.003581 -0.123627 -0.003581
vertex -0.004678 -0.123627 -0.001938
vertex -0.005859 -0.123627 -0.002427
endloop
endfacet
facet normal 0.000000 -1.000000 -0.000009
outer loop
vertex -0.003581 -0.123627 -0.003581
vertex -0.005859 -0.123627 -0.002427
vertex -0.004484 -0.123627 -0.004484
endloop
endfacet
facet normal 0.000000 -1.000000 0.000000
outer loop
vertex -0.004678 -0.123627 -0.001938
vertex -0.005064 -0.123627 -0.000000
vertex -0.006342 -0.123627 -0.000000
endloop
endfacet
facet normal 0.000000 -1.000000 -0.000007
outer loop
vertex -0.004678 -0.123627 -0.001938
vertex -0.006342 -0.123627 -0.000000
vertex -0.005859 -0.123627 -0.002427
endloop
endfacet
facet normal 0.000000 -1.000000 0.000000
outer loop
vertex -0.005064 -0.123627 -0.000000
vertex -0.004678 -0.123627 0.001938
vertex -0.005859 -0.123627 0.002427
endloop
endfacet
facet normal 0.000000 -1.000000 0.000000
outer loop
vertex -0.005064 -0.123627 -0.000000
vertex -0.005859 -0.123627 0.002427
vertex -0.006342 -0.123627 -0.000000
endloop
endfacet
facet normal 0.000000 -1.000000 0.000000
outer loop
vertex -0.004678 -0.123627 0.001938
vertex -0.003581 -0.123627 0.003581
vertex -0.004484 -0.123627 0.004484
endloop
endfacet
facet normal 0.000000 -1.000000 0.000000
outer loop
vertex -0.004678 -0.123627 0.001938
vertex -0.004484 -0.123627 0.004484
vertex -0.005859 -0.123627 0.002427
endloop
endfacet
facet normal 0.000000 -1.000000 0.000006
outer loop
vertex -0.003581 -0.123627 0.003581
vertex -0.001938 -0.123627 0.004678
vertex -0.002427 -0.123627 0.005859
endloop
endfacet
facet normal 0.000000 -1.000000 0.000000
outer loop
vertex -0.003581 -0.123627 0.003581
vertex -0.002427 -0.123627 0.005859
vertex -0.004484 -0.123627 0.004484
endloop
endfacet
facet normal 0.000000 -1.000000 0.000002
outer loop
vertex -0.001938 -0.123627 0.004678
vertex -0.000000 -0.123627 0.005064
vertex -0.000000 -0.123627 0.006342
endloop
endfacet
facet normal 0.000000 -1.000000 0.000000
outer loop
vertex -0.001938 -0.123627 0.004678
vertex -0.000000 -0.123627 0.006342
vertex -0.002427 -0.123627 0.005859
endloop
endfacet
facet normal 0.000000 -1.000000 0.000039
outer loop
vertex 0.003581 -0.143281 0.003581
vertex 0.001938 -0.143281 0.004678
vertex -0.000000 -0.143281 0.005064
endloop
endfacet
facet normal 0.000000 -1.000000 -0.000039
outer loop
vertex -0.000000 -0.143281 0.005064
vertex -0.001938 -0.143281 0.004678
vertex -0.003581 -0.143281 0.003581
endloop
endfacet
facet normal 0.000000 -1.000000 -0.000010
outer loop
vertex -0.003581 -0.143281 0.003581
vertex -0.004678 -0.143281 0.001938
vertex -0.005064 -0.143281 -0.000000
endloop
endfacet
facet normal 0.000000 -1.000000 0.000000
outer loop
vertex -0.005064 -0.143281 -0.000000
vertex -0.004678 -0.143281 -0.001938
vertex -0.003581 -0.143281 -0.003581
endloop
endfacet
facet normal 0.000000 -1.000000 -0.000039
outer loop
vertex -0.003581 -0.143281 -0.003581
vertex -0.001938 -0.143281 -0.004678
vertex -0.000000 -0.143281 -0.005064
endloop
endfacet
facet normal 0.000000 -1.000000 0.000019
outer loop
vertex -0.000000 -0.143281 -0.005064
vertex 0.001938 -0.143281 -0.004678
vertex 0.003581 -0.143281 -0.003581
endloop
endfacet
facet normal 0.000000 -1.000000 0.000010
outer loop
vertex 0.003581 -0.143281 -0.003581
vertex 0.004678 -0.143281 -0.001938
vertex 0.005064 -0.143281 -0.000000
endloop
endfacet
facet normal 0.000000 -1.000000 0.000000
outer loop
vertex 0.005064 -0.143281 -0.000000
vertex 0.004678 -0.143281 0.001938
vertex 0.003581 -0.143281 0.003581
endloop
endfacet
facet normal 0.000000 -1.000000 -0.000011
outer loop
vertex 0.003581 -0.143281 0.003581
vertex -0.000000 -0.143281 0.005064
vertex -0.003581 -0.143281 0.003581
endloop
endfacet
facet normal 0.000000 -1.000000 0.000000
outer loop
vertex -0.003581 -0.143281 0.003581
vertex -0.005064 -0.143281 -0.000000
vertex -0.003581 -0.143281 -0.003581
endloop
endfacet
facet normal 0.000000 -1.000000 0.000000
outer loop
vertex -0.003581 -0.143281 -0.003581
vertex -0.000000 -0.143281 -0.005064
vertex 0.003581 -0.143281 -0.003581
endloop
endfacet
facet normal 0.000000 -1.000000 0.000000
outer loop
vertex 0.003581 -0.143281 -0.003581
vertex 0.005064 -0.143281 -0.000000
vertex 0.003581 -0.143281 0.003581
endloop
endfacet
facet normal 0.000000 -1.000000 0.000003
outer loop
vertex 0.003581 -0.143281 0.003581
vertex -0.003581 -0.143281 0.003581
vertex -0.003581 -0.143281 -0.003581
endloop
endfacet
facet normal 0.000000 -1.000000 -0.000000
outer loop
vertex -0.003581 -0.143281 -0.003581
vertex 0.003581 -0.143281 -0.003581
vertex 0.003581 -0.143281 0.003581
endloop
endfacet
facet normal 0.555571 0.000000 0.831469
outer loop
vertex 0.003581 -0.123627 0.003581
vertex 0.001938 -0.123627 0.004678
vertex 0.001938 -0.143281 0.004678
endloop
endfacet
facet normal 0.555571 0.000000 0.831469
outer loop
vertex 0.003581 -0.123627 0.003581
vertex 0.001938 -0.143281 0.004678
vertex 0.003581 -0.143281 0.003581
endloop
endfacet
facet normal -0.555571 -0.000000 -0.831469
outer loop
vertex -0.003581 -0.123627 -0.003581
vertex -0.001938 -0.123627 -0.004678
vertex -0.001938 -0.143281 -0.004678
endloop
endfacet
facet normal -0.555570 -0.000000 -0.831470
outer loop
vertex -0.003581 -0.123627 -0.003581
vertex -0.001938 -0.143281 -0.004678
vertex -0.003581 -0.143281 -0.003581
endloop
endfacet
facet normal 0.831469 0.000000 0.555571
outer loop
vertex 0.004678 -0.123627 0.001938
vertex 0.003581 -0.123627 0.003581
vertex 0.003581 -0.143281 0.003581
endloop
endfacet
facet normal 0.831469 0.000000 0.555571
outer loop
vertex 0.004678 -0.123627 0.001938
vertex 0.003581 -0.143281 0.003581
vertex 0.004678 -0.143281 0.001938
endloop
endfacet
facet normal -0.831470 -0.000000 -0.555570
outer loop
vertex -0.004678 -0.123627 -0.001938
vertex -0.003581 -0.123627 -0.003581
vertex -0.003581 -0.143281 -0.003581
endloop
endfacet
facet normal -0.831470 -0.000000 -0.555570
outer loop
vertex -0.004678 -0.123627 -0.001938
vertex -0.003581 -0.143281 -0.003581
vertex -0.004678 -0.143281 -0.001938
endloop
endfacet
facet normal 0.980785 0.000000 0.195090
outer loop
vertex 0.005064 -0.123627 -0.000000
vertex 0.004678 -0.123627 0.001938
vertex 0.004678 -0.143281 0.001938
endloop
endfacet
facet normal 0.980785 0.000000 0.195091
outer loop
vertex 0.005064 -0.123627 -0.000000
vertex 0.004678 -0.143281 0.001938
vertex 0.005064 -0.143281 -0.000000
endloop
endfacet
facet normal -0.980785 -0.000000 -0.195091
outer loop
vertex -0.005064 -0.123627 -0.000000
vertex -0.004678 -0.123627 -0.001938
vertex -0.004678 -0.143281 -0.001938
endloop
endfacet
facet normal -0.980785 -0.000000 -0.195091
outer loop
vertex -0.005064 -0.123627 -0.000000
vertex -0.004678 -0.143281 -0.001938
vertex -0.005064 -0.143281 -0.000000
endloop
endfacet
facet normal 0.980785 0.000000 -0.195091
outer loop
vertex 0.004678 -0.123627 -0.001938
vertex 0.005064 -0.123627 -0.000000
vertex 0.005064 -0.143281 -0.000000
endloop
endfacet
facet normal 0.980785 0.000000 -0.195091
outer loop
vertex 0.004678 -0.123627 -0.001938
vertex 0.005064 -0.143281 -0.000000
vertex 0.004678 -0.143281 -0.001938
endloop
endfacet
facet normal -0.980785 -0.000000 0.195091
outer loop
vertex -0.004678 -0.123627 0.001938
vertex -0.005064 -0.123627 -0.000000
vertex -0.005064 -0.143281 -0.000000
endloop
endfacet
facet normal -0.980785 -0.000000 0.195091
outer loop
vertex -0.004678 -0.123627 0.001938
vertex -0.005064 -0.143281 -0.000000
vertex -0.004678 -0.143281 0.001938
endloop
endfacet
facet normal 0.831470 0.000000 -0.555570
outer loop
vertex 0.003581 -0.123627 -0.003581
vertex 0.004678 -0.123627 -0.001938
vertex 0.004678 -0.143281 -0.001938
endloop
endfacet
facet normal 0.831469 0.000000 -0.555571
outer loop
vertex 0.003581 -0.123627 -0.003581
vertex 0.004678 -0.143281 -0.001938
vertex 0.003581 -0.143281 -0.003581
endloop
endfacet
facet normal -0.831470 -0.000000 0.555570
outer loop
vertex -0.003581 -0.123627 0.003581
vertex -0.004678 -0.123627 0.001938
vertex -0.004678 -0.143281 0.001938
endloop
endfacet
facet normal -0.831469 -0.000000 0.555571
outer loop
vertex -0.003581 -0.123627 0.003581
vertex -0.004678 -0.143281 0.001938
vertex -0.003581 -0.143281 0.003581
endloop
endfacet
facet normal 0.555571 0.000000 -0.831469
outer loop
vertex 0.001938 -0.123627 -0.004678
vertex 0.003581 -0.123627 -0.003581
vertex 0.003581 -0.143281 -0.003581
endloop
endfacet
facet normal 0.555570 0.000000 -0.831470
outer loop
vertex 0.001938 -0.123627 -0.004678
vertex 0.003581 -0.143281 -0.003581
vertex 0.001938 -0.143281 -0.004678
endloop
endfacet
facet normal -0.555570 -0.000000 0.831470
outer loop
vertex -0.001938 -0.123627 0.004678
vertex -0.003581 -0.123627 0.003581
vertex -0.003581 -0.143281 0.003581
endloop
endfacet
facet normal -0.555571 -0.000000 0.831469
outer loop
vertex -0.001938 -0.123627 0.004678
vertex -0.003581 -0.143281 0.003581
vertex -0.001938 -0.143281 0.004678
endloop
endfacet
facet normal 0.195091 0.000000 -0.980785
outer loop
vertex -0.000000 -0.123627 -0.005064
vertex 0.001938 -0.123627 -0.004678
vertex 0.001938 -0.143281 -0.004678
endloop
endfacet
facet normal 0.195091 0.000000 -0.980785
outer loop
vertex -0.000000 -0.123627 -0.005064
vertex 0.001938 -0.143281 -0.004678
vertex -0.000000 -0.143281 -0.005064
endloop
endfacet
facet normal 0.195090 0.000000 0.980785
outer loop
vertex 0.001938 -0.123627 0.004678
vertex -0.000000 -0.123627 0.005064
vertex -0.000000 -0.143281 0.005064
endloop
endfacet
facet normal 0.195091 0.000000 0.980785
outer loop
vertex 0.001938 -0.123627 0.004678
vertex -0.000000 -0.143281 0.005064
vertex 0.001938 -0.143281 0.004678
endloop
endfacet
facet normal -0.195090 -0.000000 0.980785
outer loop
vertex -0.000000 -0.123627 0.005064
vertex -0.001938 -0.123627 0.004678
vertex -0.001938 -0.143281 0.004678
endloop
endfacet
facet normal -0.195091 -0.000000 0.980785
outer loop
vertex -0.000000 -0.123627 0.005064
vertex -0.001938 -0.143281 0.004678
vertex -0.000000 -0.143281 0.005064
endloop
endfacet
endsolid FlipSky-85165-150
